<?xml version="1.0" encoding="UTF-8" standalone="no"?><!DOCTYPE svg PUBLIC "-//W3C//DTD SVG 1.1//EN" "http://www.w3.org/Graphics/SVG/1.1/DTD/svg11.dtd"><svg width="30px" height="31px" viewBox="0 0 100 100" version="1.1" xmlns="http://www.w3.org/2000/svg" xmlns:xlink="http://www.w3.org/1999/xlink" xml:space="preserve" xmlns:serif="http://www.serif.com/" style="fill-rule:evenodd;clip-rule:evenodd;stroke-linejoin:round;stroke-miterlimit:2;"><path d="M25,12.5c-11.504,0 -12.5,0.996 -12.5,12.5l0,50c0,11.504 0.996,12.5 12.5,12.5l50,0c11.504,0 12.5,-0.996 12.5,-12.5l0,-50c0,-11.504 -0.996,-12.5 -12.5,-12.5l-50,0Zm50,8.333c2.3,0 4.167,1.867 4.167,4.167c-0,2.3 -1.867,4.167 -4.167,4.167c-2.3,-0 -4.167,-1.867 -4.167,-4.167c0,-2.3 1.867,-4.167 4.167,-4.167Zm-25,8.334c11.504,-0 20.833,9.329 20.833,20.833c0,11.504 -9.329,20.833 -20.833,20.833c-11.504,0 -20.833,-9.329 -20.833,-20.833c-0,-11.504 9.329,-20.833 20.833,-20.833Zm0,8.333c-6.857,0 -12.5,5.643 -12.5,12.5c0,6.857 5.643,12.5 12.5,12.5c6.857,0 12.5,-5.643 12.5,-12.5c0,-6.857 -5.643,-12.5 -12.5,-12.5Z" style="fill:#285852;fill-rule:nonzero;"/></svg>